<svg width="25" height="21" viewBox="0 0 25 21" fill="none" xmlns="http://www.w3.org/2000/svg">
<path d="M22.9167 3.12505H17.7083V2.08335C17.7083 0.934376 16.774 0 15.625 0H9.375C8.22603 0 7.29165 0.934327 7.29165 2.08335V3.125H2.08335C0.934326 3.12505 0 4.05938 0 5.20836V8.33336C0 9.48239 0.934326 10.4167 2.08335 10.4167H10.4167V9.89586C10.4167 9.60797 10.6497 9.37501 10.9375 9.37501H14.0625C14.3504 9.37501 14.5834 9.60797 14.5834 9.89586V10.4167H22.9167C24.0657 10.4167 25 9.48239 25 8.33336V5.20836C25 4.05938 24.0657 3.12505 22.9167 3.12505ZM15.625 3.12505H9.375V2.08335H15.625V3.12505Z" fill="#FFBB38"/>
<path d="M24.7111 10.9787C24.5336 10.8907 24.3215 10.9111 24.1648 11.0301C23.7945 11.3104 23.3632 11.4584 22.9166 11.4584H14.5833V13.0209C14.5833 13.3087 14.3504 13.5417 14.0625 13.5417H10.9375C10.6496 13.5417 10.4166 13.3087 10.4166 13.0209V11.4584H2.08335C1.63677 11.4584 1.20547 11.3104 0.835156 11.0301C0.677979 10.9101 0.466406 10.8897 0.288867 10.9787C0.111914 11.0667 0 11.2473 0 11.4452V18.7501C0 19.899 0.934326 20.8334 2.08335 20.8334H22.9167C24.0657 20.8334 25 19.8991 25 18.7501V11.4452C25 11.2473 24.8881 11.0667 24.7111 10.9787Z" fill="#FFBB38"/>
</svg>
