<svg width="27" height="30" viewBox="0 0 27 30" fill="none" xmlns="http://www.w3.org/2000/svg">
<path d="M25.5129 4.09262C21.6167 4.09262 18.6347 3.11615 16.8192 2.29698C14.8456 1.40649 13.7814 0.502868 13.7725 0.495302L13.1976 0L12.6218 0.493836C12.6113 0.502868 11.547 1.40655 9.57344 2.29698C7.75797 3.11615 4.77596 4.09262 0.879755 4.09262H0V16.169L13.1963 29.9999L26.3927 16.1812V4.09262H25.5129ZM22.8736 12.3075C22.8736 13.6718 22.3435 14.9545 21.3807 15.9206L13.1963 24.4225L5.01197 15.9205C4.0491 14.9545 3.51902 13.6717 3.51902 12.3075V11.8501C3.51902 9.02793 5.81506 6.73183 8.63732 6.73183C9.90387 6.73183 11.1199 7.19845 12.0613 8.04571L13.1644 9.03854L13.972 8.23093C14.9388 7.2642 16.2241 6.73177 17.5912 6.73177H17.7553C20.5775 6.73177 22.8736 9.02781 22.8736 11.8501V12.3075H22.8736Z" fill="#396AFF"/>
<path d="M17.7554 8.49139H17.5913C16.6942 8.49139 15.8507 8.84077 15.2163 9.47513L13.2283 11.4631L10.8843 9.35355C10.2665 8.79755 9.46854 8.49133 8.63735 8.49133C6.78529 8.49133 5.27856 9.99806 5.27856 11.8501V12.3075C5.27856 13.2047 5.62794 14.0482 6.26231 14.6825L6.27404 14.6944L13.1963 21.8854L20.1304 14.6825C20.7647 14.0481 21.1141 13.2046 21.1141 12.3074V11.8501C21.1142 9.99818 19.6074 8.49139 17.7554 8.49139ZM15.8356 16.4092H14.0761V18.1687H12.3166V16.4092H10.5571V14.6497H12.3166V12.8902H14.0761V14.6497H15.8356V16.4092Z" fill="#396AFF"/>
</svg>
