<svg width="20" height="25" viewBox="0 0 20 25" fill="none" xmlns="http://www.w3.org/2000/svg">
<path d="M16.9922 9.17969H15.2326V5.16455C15.2326 2.3168 12.8669 0 9.95913 0C7.05137 0 4.68569 2.3168 4.68569 5.16455V9.17969H2.92969C1.31426 9.17969 0 10.4939 0 12.1094V22.0703C0 23.6857 1.31426 25 2.92969 25H16.9922C18.6076 25 19.9219 23.6857 19.9219 22.0703V12.1094C19.9219 10.4939 18.6076 9.17969 16.9922 9.17969ZM6.63882 5.16455C6.63882 3.39375 8.12832 1.95312 9.95913 1.95312C11.7899 1.95312 13.2794 3.39375 13.2794 5.16455V9.17969H6.63882V5.16455ZM17.9688 22.0703C17.9688 22.6088 17.5307 23.0469 16.9922 23.0469H2.92969C2.39121 23.0469 1.95312 22.6088 1.95312 22.0703V12.1094C1.95312 11.5709 2.39121 11.1328 2.92969 11.1328H16.9922C17.5307 11.1328 17.9688 11.5709 17.9688 12.1094V22.0703Z" fill="#396AFF"/>
</svg>
