<svg width="22" height="30" viewBox="0 0 22 30" fill="none" xmlns="http://www.w3.org/2000/svg">
<path d="M21.9529 25.9125L20.3535 8.35312C20.3104 7.86937 19.9054 7.5 19.4198 7.5H16.6073V5.625C16.6073 4.1175 16.0223 2.70375 14.9629 1.64437C13.9204 0.6 12.4692 0 10.9823 0C7.88104 0 5.35729 2.52375 5.35729 5.625V7.5H2.54479C2.05917 7.5 1.65417 7.86937 1.61104 8.35312L0.0154175 25.9106C-0.0802075 26.9587 0.272293 28.0031 0.981043 28.7794C1.68979 29.5556 2.69854 30 3.75042 30H18.216C19.266 30 20.2748 29.5556 20.9835 28.7812C21.6942 28.005 22.0448 26.9587 21.9529 25.9125ZM14.7323 7.5H7.23229V5.625C7.23229 3.55687 8.91417 1.875 10.9823 1.875C11.976 1.875 12.9435 2.2725 13.6373 2.96812C14.3442 3.675 14.7323 4.61812 14.7323 5.625V7.5Z" fill="#FFBB38"/>
</svg>
